<?xml version="1.0" encoding="utf-8"?>
<!-- Generator: Adobe Illustrator 23.0.1, SVG Export Plug-In . SVG Version: 6.00 Build 0)  -->
<svg version="1.1" id="Layer_1" xmlns="http://www.w3.org/2000/svg" xmlns:xlink="http://www.w3.org/1999/xlink" x="0px" y="0px"
	 viewBox="0 0 612 212" style="enable-background:new 0 0 612 212;" xml:space="preserve">
<style type="text/css">
	.st0{fill:#B2E1E9;}
	.st1{fill:#F05F6D;}
	.st2{fill:#2CB6BD;}
</style>
<g id="Layer_x0020_1">
	<path class="st0" d="M68,127.4l3.5,9c9.2-6.4,19.8-8.7,32.3-7.1l0,0l-3.9-10.2C95.4,107.6,91,96,86.5,84.3
		c-0.2-0.6-0.4-0.8-0.9-0.9c-0.1,0-0.1,0-0.1,0c-1.1-0.1-2.2-0.3-3.3-0.4c-2.2-0.3-4.4-0.6-6.6-0.6c-0.1,0-0.3,0-0.4,0
		c-7.8,0-14.9,2.3-21,6.8c-0.6,0.4-0.6,0.6-0.4,1.4C58.6,102.9,63.3,115.1,68,127.4L68,127.4z"/>
	<path class="st0" d="M107.1,118.9l3,8c8.1-9.6,17.6-14.9,28.7-16.3l-4.8-12.5c-4.2-11.2-8.6-22.4-12.8-33.6
		c-0.2-0.6-0.3-0.6-0.8-0.6c-3.5,0.2-6.8,1-9.9,2.3c-6.9,2.8-12.7,7.5-17.5,14.3c-0.4,0.5-0.4,0.7-0.1,1.3
		C97.7,94.3,102.3,106.6,107.1,118.9L107.1,118.9z"/>
	<path class="st1" d="M59.9,165.6c-1.2-0.6-2.6-0.6-3.9-0.2c-2.7,0.9-4,3.9-3.1,6.6c0.4,1.3,1.4,2.3,2.6,2.9
		c0.7,0.4,1.4,0.5,2.2,0.5c0.6,0,1.2-0.1,1.7-0.3c2.7-0.9,4-3.9,3.1-6.6C62,167.2,61.1,166.2,59.9,165.6z"/>
	<path class="st1" d="M138.3,35.2c-1.3-0.6-2.7-0.8-4.2-0.3c-2.9,0.9-4.4,4-3.5,6.9c0.4,1.4,1.4,2.5,2.7,3.2
		c0.8,0.4,1.6,0.6,2.4,0.6c0.6,0,1.2-0.1,1.7-0.3c2.9-0.9,4.4-4,3.5-6.9C140.6,37,139.6,35.9,138.3,35.2z"/>
	<polygon class="st1" points="190.8,123.1 198.7,123.1 198.7,87 190.8,87 	"/>
	<polygon class="st1" points="208.8,123.1 216.7,123.1 216.7,73.2 208.8,73.2 	"/>
	<path class="st1" d="M268.5,86.1c-5.4,0-10.2,3.4-12.2,6.6c-1.2-4-4.5-6.6-9.9-6.6c-5.5,0-10.2,3.6-11.7,5.8v-4.9h-7.8v36.1h7.8
		V97.9c1.7-2.4,4.8-4.8,8.3-4.8c4.2,0,6,2.6,6,6.5v23.5h7.8V97.9c1.6-2.3,4.8-4.8,8.4-4.8c4.2,0,5.9,2.6,5.9,6.5v23.5h7.8V97.1
		C278.9,89.7,275.1,86.1,268.5,86.1z"/>
	<path class="st2" d="M59.4,175c-0.6,0.2-1.2,0.3-1.7,0.3c-0.7,0-1.4-0.1-2.2-0.5c-1.2-0.6-2.2-1.6-2.6-2.9
		c-0.9-2.7,0.4-5.5,3.1-6.6c1.3-0.4,2.7-0.4,3.9,0.2c1.2,0.6,2.2,1.6,2.6,2.9C63.5,171.1,62.1,174,59.4,175z M62.6,159.8L62.6,159.8
		c-2.7-1.3-5.8-1.4-8.7-0.4c-0.5,0.2-1,0.4-1.6,0.7c-0.1,0.1-0.4,0.1-0.5-0.1C36,146.7,27,127.1,27,106.3
		c0-38.8,31.5-70.4,70.1-70.4c5.4,0,10.7,0.6,15.9,1.8c1.2,0.3,2.5,0.1,3.6-0.6c1.1-0.6,1.9-1.7,2.2-3c0.6-2.6-1-5.2-3.6-5.8
		c-5.9-1.4-12-2.1-18.1-2.1c-43.9,0-79.7,35.9-79.7,80.1c0,23.8,10.4,46.1,28.5,61.3c0.1,0.1,0.1,0.1,0.2,0.2
		c0.1,0.1,0.2,0.3,0.2,0.4c-0.3,1.9-0.1,3.9,0.5,5.8c1,2.9,3.1,5.2,5.9,6.5c2.7,1.3,5.9,1.4,8.7,0.4c5.9-2.2,9-8.7,6.9-14.7
		C67.4,163.4,65.3,161.1,62.6,159.8L62.6,159.8z"/>
	<path class="st2" d="M137.6,45.3c-0.6,0.2-1.2,0.3-1.7,0.3c-0.9,0-1.7-0.2-2.4-0.6c-1.3-0.6-2.3-1.8-2.7-3.2
		c-0.9-2.9,0.6-6,3.5-6.9c1.4-0.4,2.9-0.4,4.2,0.3c1.3,0.6,2.3,1.8,2.7,3.2C141.9,41.3,140.4,44.4,137.6,45.3z M147.1,43.3
		c-0.1-0.1-0.2-0.3-0.1-0.4c0.5-2.1,0.4-4.2-0.2-6.3c-0.9-2.9-3-5.3-5.8-6.6c-2.7-1.4-5.8-1.6-8.7-0.6c-6,2-9.2,8.5-7.3,14.5
		c0.9,2.9,3,5.3,5.8,6.6c2.7,1.4,5.8,1.6,8.7,0.6c0.4-0.1,0.7-0.3,1.1-0.4c0.1-0.1,0.3-0.1,0.4,0.1c17.3,13.9,26.9,34.6,26.3,56.7
		c-0.4,18.8-8.1,36.3-21.7,49.2c-13.5,13-31.3,19.9-50,19.4c-5.3-0.1-10.5-0.9-15.6-2.2c-0.4-0.1-0.8-0.1-1.2-0.1
		c-0.9,0-1.7,0.2-2.4,0.6c-1.1,0.6-1.9,1.7-2.2,3c-0.6,2.6,0.9,5.2,3.5,5.8c5.8,1.4,11.7,2.3,17.7,2.4c21.2,0.5,41.5-7.4,56.9-22.1
		c15.4-14.8,24.2-34.6,24.7-56C177.4,82.4,166.6,59,147.1,43.3z"/>
	<path class="st2" d="M54.3,89.1c6-4.5,13.1-6.8,21-6.8c0.1,0,0.3,0,0.4,0c2.2,0,4.4,0.4,6.6,0.6c1.1,0.1,2.2,0.3,3.3,0.4
		c0.1,0,0.1,0,0.1,0c0.4,0.1,0.6,0.3,0.9,0.9c4.4,11.6,8.9,23.3,13.3,34.8l3.9,10.2l0,0c-12.5-1.7-23,0.6-32.3,7.1l-3.5-9
		c-4.7-12.3-9.4-24.6-14.1-36.9C53.6,89.7,53.7,89.6,54.3,89.1L54.3,89.1z M93,80.5c4.8-6.8,10.5-11.4,17.5-14.3
		c3.2-1.3,6.5-2.1,9.9-2.3c0.5-0.1,0.6,0,0.8,0.6c4.2,11.2,8.5,22.4,12.8,33.6l4.8,12.5c-11.2,1.4-20.6,6.8-28.7,16.3l-3-8
		c-4.8-12.4-9.4-24.7-14.2-37.1C92.6,81.1,92.6,80.9,93,80.5L93,80.5z M48.2,93.9L47,94.3c-1,0.4-2,0.8-3,1.2
		c-1.7,0.6-2.2,1.6-1.5,3.3c6.6,17.4,13.3,34.8,19.9,52.1c0.6,1.5,1.2,2.2,2.2,2.2c0.5,0,1.1-0.1,1.9-0.4l86.9-33.3
		c1-0.4,1.8-0.7,2.2-1.4c0.4-0.7,0.1-1.6-0.3-2.5l-6.1-16c-4.4-11.6-8.9-23.2-13.2-34.8c-0.8-2.1-1.2-2.8-1.8-3.1
		c-0.6-0.2-1.4-0.1-3.5,0.7c-0.3,0.1-0.5,0.2-0.9,0.4c-0.9,0.4-1.8,0.9-2.4,0.5c-0.7-0.4-1.1-1.3-1.4-2.2c-0.1-0.3-0.2-0.6-0.3-0.8
		c-0.6-1.5-1.2-1.9-2.9-1.9c-4.5-0.1-8.8,0.7-13,2.2c-8.4,3.1-15.5,8.6-21,16.3c-0.6,0.8-1.5,1.2-2.5,1.1c-0.8-0.1-1.6-0.2-2.4-0.3
		h-0.1C81,77,78,76.7,75.1,76.7h-0.3c-10.4,0.1-19.3,3.5-26.4,10.1c-1,0.9-1.2,1.9-0.8,3c0.3,0.7,0.6,1.4,0.9,2.2l0.3,0.6
		c0.1,0.2,0.1,0.5,0,0.7C48.6,93.6,48.4,93.8,48.2,93.9z"/>
	<path class="st2" d="M294.9,102.1c0.4-4.4,3.5-9.6,10.2-9.6c7.1,0,10,5.3,10.2,9.6H294.9z M305.1,86.1c-10.7,0-18.3,8.4-18.3,18.9
		c0,11.4,8.1,19,18.9,19c5.8,0,11.1-1.8,14.6-5.3l-3.6-5.2c-2.5,2.5-6.7,4-10.2,4c-6.8,0-10.9-4.5-11.5-9.9h27.9v-1.9
		C322.9,94.4,315.9,86.1,305.1,86.1z"/>
	<polygon class="st2" points="358.5,87 349.7,87 341.1,99.2 332.5,87 323.7,87 336.2,104.5 323,123.1 331.7,123.1 341.1,109.8 
		350.5,123.1 359.2,123.1 346,104.5 	"/>
	<path class="st2" d="M379.7,93c3.5,0,6.3,1.4,8.3,4.2l5.2-4.8c-2.5-3.5-6.8-6.4-13.8-6.4c-11,0-18.6,8-18.6,18.9
		c0,11,7.7,19,18.6,19c7.1,0,11.3-3,13.8-6.4l-5.2-4.8c-2,2.7-4.8,4.2-8.3,4.2c-6.6,0-10.9-5-10.9-12c0-7.1,4.3-12,10.9-12V93z"/>
	<path class="st2" d="M420.6,86.1c-5.7,0-10.4,3-12.7,5.8V73.3H400v49.8h7.8V97.9c1.9-2.4,5.3-4.8,9.3-4.8c4.4,0,7.3,1.7,7.3,7.3
		v22.7h7.8V97.6C432.3,90.1,428.4,86.1,420.6,86.1L420.6,86.1z"/>
	<path class="st2" d="M463,114.8c-1.8,2.4-5.2,3.7-8.6,3.7c-4.4,0-7.7-2.5-7.7-6.4c0-4,3.3-6.5,7.7-6.5c3.5,0,6.8,1.3,8.6,3.7V114.8
		L463,114.8z M455.8,86c-5.8,0-11,1.9-15.2,5.8l3.2,5.5c3.2-3.1,6.6-4.5,10.7-4.5c5,0,8.4,2.5,8.4,6.7v5.4
		c-2.6-3.1-6.8-4.6-11.7-4.6c-5.9,0-12.5,3.5-12.5,11.7c0,8,6.6,12,12.5,12c4.8,0,9-1.7,11.7-4.8v3.9h7.8V99.2
		C470.8,89.5,463.7,86.1,455.8,86L455.8,86z"/>
	<path class="st2" d="M498.5,86.1c-5.7,0-10.3,3-12.7,5.8v-4.9H478v36.1h7.8V97.9c1.8-2.4,5.3-4.8,9.3-4.8c4.4,0,7.3,1.9,7.3,7.5
		v22.5h7.8V97.7C510.2,90.3,506.3,86.1,498.5,86.1L498.5,86.1z"/>
	<path class="st2" d="M544.1,111.3c-1.7,2.7-5.6,4.8-9.3,4.8c-6.2,0-10.2-4.6-10.2-11.6s4-11.6,10.2-11.6c3.7,0,7.6,2.2,9.3,4.8
		V111.3L544.1,111.3z M544.1,91.9c-2.9-3.8-7.1-5.9-11.6-5.9c-9.3,0-16,6.8-16,18.5c0,11.9,6.8,18.5,16,18.5c4.7,0,8.8-2.4,11.6-6
		v4.3c0,7.4-5.5,9.8-10.7,9.8c-4.8,0-8.5-1.3-11.4-4.6l-3.7,5.7c4.4,4,9,5.4,15.1,5.4c8.9,0,18.5-3.5,18.5-16.5V87h-7.8V91.9
		L544.1,91.9z"/>
	<path class="st2" d="M566.6,102.1c0.4-4.4,3.5-9.6,10.2-9.6c7.1,0,10,5.3,10.2,9.6H566.6z M594.5,105.8c0-11.4-7-19.7-17.8-19.7
		c-10.7,0-18.3,8.4-18.3,18.9c0,11.4,8.1,19,18.9,19c5.8,0,11.1-1.8,14.6-5.3l-3.6-5.2c-2.5,2.5-6.7,4-10.2,4
		c-6.8,0-10.9-4.5-11.5-9.9h27.9V105.8z"/>
	<path class="st2" d="M194.7,71.3c-2.6,0-4.8,2.2-4.8,4.8s2.2,4.8,4.8,4.8c2.7,0,4.8-2.2,4.8-4.8S197.4,71.3,194.7,71.3z"/>
</g>
</svg>
